# xmcd
#
# Track frame offsets: 
#        150
#        9872
#        23682
#        34896
#        45237
#        58078
#        68543
#        81141
#
# Disc length: 2167 seconds
#
# Revision: 0
# Processed by: cddbd v1.5.2PL0 Copyright (c) Steve Scherf et al.
# Submitted via: ExactAudioCopy v1.0b4
#
DISCID=51087508
DTITLE=Bo Diddley - Live - La Grande Stroria Del Rock 54 - Face B
DYEAR=1900
DGENRE=Blues
TTITLE0=Mess Around
TTITLE1=Hong Kong
TTITLE2=Rockin' Bo
TTITLE3=Dancin' Girl
TTITLE4=Rhyme Song
TTITLE5=Let The Kids Dance
TTITLE6=Cracklin'
TTITLE7=Live - La Grande Stroria Del Rock 54 - Face B
EXTD=
EXTT0=
EXTT1=
EXTT2=
EXTT3=
EXTT4=
EXTT5=
EXTT6=
EXTT7=
PLAYORDER=
